{
    "asset" : {
        "generator" : "Khronos glTF Blender I/O v1.1.46",
        "version" : "2.0"
    },
    "scene" : 0,
    "scenes" : [
        {
            "name" : "Scene",
            "nodes" : [
                1,
                2
            ]
        }
    ],
    "nodes" : [
        {
            "camera" : 0,
            "name" : "Camera_Orientation",
            "rotation" : [
                -0.7071067690849304,
                0,
                0,
                0.7071067690849304
            ]
        },
        {
            "children" : [
                0
            ],
            "name" : "Camera",
            "rotation" : [
                0.48336705565452576,
                0.4536825120449066,
                -0.33351486921310425,
                0.6702957153320312
            ],
            "translation" : [
                7,
                0,
                6
            ]
        },
        {
            "mesh" : 0,
            "name" : "Cylinder"
        }
    ],
    "cameras" : [
        {
            "name" : "Camera.002",
            "perspective" : {
                "yfov" : 0.3554346795917184,
                "zfar" : 1000,
                "znear" : 0.10000000149011612
            },
            "type" : "perspective"
        }
    ],
    "materials" : [
        {
            "doubleSided" : true,
            "emissiveFactor" : [
                0,
                0,
                0
            ],
            "name" : "Material.001",
            "pbrMetallicRoughness" : {
                "baseColorFactor" : [
                    1,
                    0.09308240562677383,
                    0.0020074585918337107,
                    1
                ],
                "metallicFactor" : 0,
                "roughnessFactor" : 0.5
            }
        },
        {
            "doubleSided" : true,
            "emissiveFactor" : [
                0,
                0,
                0
            ],
            "name" : "Material.002",
            "pbrMetallicRoughness" : {
                "baseColorFactor" : [
                    0.800000011920929,
                    0.800000011920929,
                    0.800000011920929,
                    1
                ],
                "metallicFactor" : 0,
                "roughnessFactor" : 0.5
            }
        }
    ],
    "meshes" : [
        {
            "name" : "Cylinder.001",
            "primitives" : [
                {
                    "attributes" : {
                        "POSITION" : 0,
                        "NORMAL" : 1,
                        "TANGENT" : 2,
                        "TEXCOORD_0" : 3
                    },
                    "indices" : 4,
                    "material" : 0
                },
                {
                    "attributes" : {
                        "POSITION" : 5,
                        "NORMAL" : 6,
                        "TANGENT" : 7,
                        "TEXCOORD_0" : 8
                    },
                    "indices" : 9,
                    "material" : 1
                }
            ]
        }
    ],
    "accessors" : [
        {
            "bufferView" : 0,
            "componentType" : 5126,
            "count" : 2250,
            "max" : [
                1.8735520839691162,
                1.500000238418579,
                1.0274312496185303
            ],
            "min" : [
                -1.0269715785980225,
                -1.4901244640350342,
                -1.0274312496185303
            ],
            "type" : "VEC3"
        },
        {
            "bufferView" : 1,
            "componentType" : 5126,
            "count" : 2250,
            "type" : "VEC3"
        },
        {
            "bufferView" : 2,
            "componentType" : 5126,
            "count" : 2250,
            "type" : "VEC4"
        },
        {
            "bufferView" : 3,
            "componentType" : 5126,
            "count" : 2250,
            "type" : "VEC2"
        },
        {
            "bufferView" : 4,
            "componentType" : 5123,
            "count" : 10800,
            "type" : "SCALAR"
        },
        {
            "bufferView" : 5,
            "componentType" : 5126,
            "count" : 673,
            "max" : [
                0.9451642632484436,
                1.466904878616333,
                0.9455872178077698
            ],
            "min" : [
                -0.9451642632484436,
                -1.3174558877944946,
                -0.9455870389938354
            ],
            "type" : "VEC3"
        },
        {
            "bufferView" : 6,
            "componentType" : 5126,
            "count" : 673,
            "type" : "VEC3"
        },
        {
            "bufferView" : 7,
            "componentType" : 5126,
            "count" : 673,
            "type" : "VEC4"
        },
        {
            "bufferView" : 8,
            "componentType" : 5126,
            "count" : 673,
            "type" : "VEC2"
        },
        {
            "bufferView" : 9,
            "componentType" : 5123,
            "count" : 2160,
            "type" : "SCALAR"
        }
    ],
    "bufferViews" : [
        {
            "buffer" : 0,
            "byteLength" : 27000,
            "byteOffset" : 0
        },
        {
            "buffer" : 0,
            "byteLength" : 27000,
            "byteOffset" : 27000
        },
        {
            "buffer" : 0,
            "byteLength" : 36000,
            "byteOffset" : 54000
        },
        {
            "buffer" : 0,
            "byteLength" : 18000,
            "byteOffset" : 90000
        },
        {
            "buffer" : 0,
            "byteLength" : 21600,
            "byteOffset" : 108000
        },
        {
            "buffer" : 0,
            "byteLength" : 8076,
            "byteOffset" : 129600
        },
        {
            "buffer" : 0,
            "byteLength" : 8076,
            "byteOffset" : 137676
        },
        {
            "buffer" : 0,
            "byteLength" : 10768,
            "byteOffset" : 145752
        },
        {
            "buffer" : 0,
            "byteLength" : 5384,
            "byteOffset" : 156520
        },
        {
            "buffer" : 0,
            "byteLength" : 4320,
            "byteOffset" : 161904
        }
    ],
    "buffers" : [
        {
            "byteLength" : 166224,
            "uri" : "mug.bin"
        }
    ]
}
